<?xml version="1.0" encoding="utf-8"?>
<!-- Generator: Adobe Illustrator 24.1.0, SVG Export Plug-In . SVG Version: 6.00 Build 0)  -->
<svg version="1.1" id="Layer_1" xmlns="http://www.w3.org/2000/svg" xmlns:xlink="http://www.w3.org/1999/xlink" x="0px" y="0px"
	 viewBox="0 0 20.2 13.5" style="enable-background:new 0 0 20.2 13.5;" xml:space="preserve">
<style type="text/css">
	.st0{fill:#FFFFFF;}
</style>
<path id="Icon_ionic-ios-arrow-round-back" class="st0" d="M7.4,0.2c0.4,0.4,0.4,0.9,0,1.3L3.1,5.8h16.3c0.5,0.1,0.9,0.5,0.8,1
	c0,0.4-0.4,0.8-0.8,0.8H3.1l4.3,4.3c0.4,0.4,0.4,0.9,0,1.3c-0.3,0.4-0.9,0.4-1.3,0c0,0,0,0,0,0l0,0L0.3,7.4l0,0
	C0.2,7.3,0.1,7.2,0.1,7.1C0,7,0,6.9,0,6.8c0-0.2,0.1-0.5,0.3-0.6l5.8-5.8C6.4-0.1,7-0.1,7.4,0.2L7.4,0.2z"/>
</svg>
